<svg width="66" height="79" viewBox="0 0 66 79" fill="none" xmlns="http://www.w3.org/2000/svg">
<path d="M58.5329 45.0341C55.4291 40.6852 57.3469 35.9202 53.8546 32.3377C52.2524 30.6939 50.2652 30.0696 49.0445 29.7991C49.4433 25.804 50.3658 20.55 52.5194 14.6994C54.8083 8.48132 57.7214 3.65733 60.1351 0.265625C56.3585 2.5441 51.0767 6.33463 46.1036 12.2927C42.0877 17.1028 39.5491 21.795 37.9538 25.3878H27.529C25.9302 21.7915 23.3917 17.0993 19.3792 12.2927C14.4061 6.33463 9.12431 2.5441 5.34766 0.265625C7.76139 3.65733 10.678 8.48132 12.9634 14.6994C15.117 20.55 16.036 25.804 16.4383 29.7991C15.2176 30.0696 13.227 30.6939 11.6282 32.3377C8.1394 35.9202 10.0537 40.6852 6.94988 45.0341C5.94762 46.4351 4.02635 48.3564 0 49.5771C0.863532 50.3921 3.28767 52.4556 7.08166 53.0521C10.5809 53.6 13.3241 52.5943 14.4304 52.1157C20.4716 57.2935 22.3097 61.9059 22.8507 65.2109C23.2876 67.8847 23.0934 71.0753 25.2575 74.5641C25.5488 75.0357 25.8574 75.4693 26.173 75.8681C27.751 77.8622 30.1959 78.9754 32.7414 78.9754C35.2869 78.9754 37.7284 77.8622 39.3098 75.8681C39.6254 75.4693 39.934 75.0357 40.2254 74.5641C42.3859 71.0753 42.1952 67.8813 42.6321 65.2109C43.1697 61.9024 45.0112 57.29 51.0525 52.1157C52.1587 52.5943 54.9019 53.6 58.4011 53.0521C62.1951 52.4591 64.6193 50.3921 65.4828 49.5771C61.4599 48.3564 59.5352 46.4351 58.5329 45.0341Z" fill="#202020"/>
<path d="M32.6755 48.977C28.8087 54.5154 25.469 60.255 22.8437 65.1656C22.2923 61.8641 20.4508 57.2621 14.4373 52.1156C13.331 52.5941 10.5843 53.6033 7.08513 53.0484C3.2946 52.4554 0.867001 50.3885 0 49.577C4.02288 48.3562 5.94762 46.435 6.94988 45.0339C10.0537 40.685 8.13593 35.9165 11.6282 32.3375C12.6443 31.2937 13.8165 30.659 14.8535 30.2637C21.4184 34.5258 27.5151 41.5763 32.679 48.9735L32.6755 48.977Z" fill="#202020"/>
<path d="M65.4826 49.5768C64.6156 50.3883 62.1949 52.4553 58.3975 53.0483C54.8983 53.5997 52.1585 52.5905 51.0453 52.1154C45.011 57.2897 43.1695 61.9091 42.6319 65.2141C42.625 65.2626 42.6181 65.3146 42.6111 65.3632C39.965 60.4074 36.5837 54.5881 32.6753 48.9769C37.8426 41.5588 43.9532 34.4945 50.539 30.2393C51.5967 30.6277 52.8036 31.2693 53.8544 32.3409C57.3467 35.9198 55.4289 40.6883 58.5327 45.0372C59.535 46.4348 61.4597 48.3596 65.4826 49.5803V49.5768Z" fill="#202020"/>
<path d="M42.6113 65.3634C42.2021 68.0026 42.3443 71.1446 40.2253 74.5675C39.9305 75.0391 39.6254 75.4692 39.3132 75.8715C38.5225 76.8668 37.5203 77.6436 36.3862 78.1707C35.2626 78.6944 34.0141 78.9753 32.7448 78.9753C30.1959 78.9753 27.7544 77.8656 26.173 75.8715C25.8609 75.4692 25.5522 75.0391 25.2609 74.5675C23.1003 71.0752 23.2911 67.8846 22.8541 65.2108C22.8541 65.1969 22.8472 65.1761 22.8472 65.1623C25.4724 60.2516 28.8121 54.512 32.679 48.9736C36.5874 54.5849 39.9687 60.4007 42.6148 65.3599L42.6113 65.3634Z" fill="#202020"/>
</svg>
