<svg width="154" height="66" viewBox="0 0 154 66" fill="none" xmlns="http://www.w3.org/2000/svg">
<path d="M70.4973 19.8372C70.4973 25.9316 66.2571 28.9788 61.418 28.9788C60.003 28.9788 58.3084 28.7267 56.7686 28.1926L56.8011 36.0789H51.7124V13.8051C52.1841 13.3035 52.813 12.7994 53.5667 12.3601C53.7539 12.0457 53.976 12.6122 54.4152 12.4849C55.8926 11.3219 58.0289 10.3486 60.8565 10.3486C68.5232 10.3486 70.5023 16.8823 70.5023 19.8372H70.4973ZM60.9788 24.3917C63.462 24.3917 65.2838 22.5075 65.2838 19.6175C65.2838 16.7276 63.5568 14.9057 60.9788 14.9057C58.5605 14.9382 56.7387 16.6652 56.7387 19.4927V19.8696C56.7387 22.6647 58.6229 24.3942 60.9788 24.3942V24.3917Z" fill="white"/>
<path d="M81.9652 10.3193C87.1188 10.3193 91.4538 14.7816 91.4538 19.6506C91.4538 24.5197 87.1188 28.9819 81.9652 28.9819C76.8117 28.9819 72.4468 24.5521 72.4468 19.6506C72.4468 14.7491 76.8441 10.3193 81.9652 10.3193ZM81.9328 24.3001C84.4459 24.3001 86.3002 22.3534 86.3002 19.6506C86.3002 16.9478 84.4459 15.0012 81.9328 15.0012C79.4197 15.0012 77.5978 16.9478 77.5978 19.6506C77.5978 22.3534 79.4521 24.3325 81.9328 24.3001Z" fill="white"/>
<path d="M102.762 10.3193C107.913 10.3193 112.25 14.7816 112.25 19.6506C112.25 24.5197 107.915 28.9819 102.762 28.9819C97.6081 28.9819 93.2432 24.5521 93.2432 19.6506C93.2432 14.7491 97.6405 10.3193 102.762 10.3193ZM102.729 24.3001C105.242 24.3001 107.097 22.3534 107.097 19.6506C107.097 16.9478 105.242 15.0012 102.729 15.0012C100.216 15.0012 98.3942 16.9478 98.3942 19.6506C98.3942 22.3534 100.248 24.3325 102.729 24.3001Z" fill="white"/>
<path d="M124.439 19.3987L133.833 28.6676H127.047L119.852 21.5674V28.6676H114.763V1.39746H119.852V17.1676L126.041 10.6015H132.859L124.439 19.3987Z" fill="white"/>
<path d="M152.839 28.667H147.781V26.9076C146.368 28.2577 144.514 29.1062 141.968 28.9191C137.381 28.5422 133.99 24.4269 133.99 19.6502C133.99 14.8735 137.414 10.7581 141.968 10.3813C142.313 10.3488 142.692 10.3189 143.131 10.3189C144.986 10.2864 147.686 10.5709 149.603 11.3546C150.137 11.2597 150.546 11.1973 150.796 11.2298C151.517 11.3546 152.208 11.5118 152.837 11.7015V28.667H152.839ZM143.571 24.3944C146.084 24.3944 147.811 22.5401 147.843 19.745V19.6502C147.843 16.7901 146.021 14.9383 143.571 14.9059C141.087 14.9059 139.266 16.7901 139.266 19.6502C139.266 22.5102 140.993 24.3944 143.571 24.3944Z" fill="white"/>
<path d="M51.8297 50.3588C51.8297 49.8247 51.7973 49.2906 51.7973 48.7241L51.7349 31.0049H56.7936L56.8884 48.5993C56.8884 49.6051 57.0456 50.3887 57.2653 50.9877C57.6421 52.6223 59.4964 52.8095 60.2501 52.842C60.8166 53.5008 59.7784 57.0197 59.2144 57.6486C54.1557 57.5238 52.0194 54.7886 51.8322 50.3588H51.8297Z" fill="white"/>
<path d="M80.4801 57.6491H75.4214V55.8897C74.0064 57.2398 72.1546 58.0883 69.609 57.9012C65.022 57.5243 61.6304 53.409 61.6304 48.6323C61.6304 43.8556 65.0544 39.7402 69.609 39.3634C69.9534 39.3309 70.3303 39.301 70.772 39.301C72.6263 39.271 75.3266 39.553 77.2433 40.3367C77.7773 40.2418 78.1866 40.1794 78.4362 40.2119C79.1599 40.3367 79.8512 40.4939 80.4776 40.6836V57.6491H80.4801ZM71.2112 53.3765C73.7244 53.3765 75.4514 51.5222 75.4838 48.7271V48.6323C75.4838 45.7722 73.662 43.9204 71.2112 43.888C68.728 43.888 66.9062 45.7722 66.9062 48.6323C66.9062 51.4923 68.6332 53.3765 71.2112 53.3765Z" fill="white"/>
<path d="M88.1446 30.5986L88.1147 40.0872C89.6844 39.5855 91.3815 39.301 92.7965 39.301C93.1734 39.301 93.5502 39.301 93.8971 39.3634C98.1697 39.6779 101.499 43.4164 101.846 47.7513C101.908 48.253 101.908 48.7571 101.876 49.2587C101.624 53.8133 98.2945 57.6167 93.8971 57.8987C93.3006 57.9312 92.7341 57.9312 92.2001 57.9312C89.7169 57.7739 87.8651 57.0527 86.45 56.0145C86.3253 56.3589 86.3253 57.3971 86.3253 57.6491H83.0884V30.5986H88.1471H88.1446ZM92.3548 43.888C90.1237 43.888 88.4591 45.3954 88.1147 47.7513V49.5108C88.4591 51.8667 90.1262 53.3741 92.3548 53.3741C94.9303 53.3741 96.6598 51.4898 96.6598 48.6298C96.6598 45.7698 94.838 43.918 92.3548 43.8856V43.888Z" fill="white"/>
<path d="M110.797 53.691C112.494 53.691 113.248 53.0322 113.248 52.246C113.248 52.1512 113.186 52.0888 113.091 52.0264C112.337 49.9525 104.513 49.4184 104.483 44.9587C104.483 42.3831 107.186 39.3359 110.735 39.3359C113.405 39.3359 116.423 40.5289 118.055 42.6976L115.132 44.8014C113.907 43.7333 112.776 43.3864 111.361 43.3864C109.946 43.3864 109.445 44.0453 109.445 44.769C109.445 46.8105 118.524 47.0301 118.491 52.1212C118.491 55.2009 115.067 57.9336 111.296 57.9336C108.249 57.9336 104.92 56.5186 103.567 54.0379L106.739 51.8692C107.84 53.127 109.128 53.691 110.792 53.691H110.797Z" fill="white"/>
<path d="M127.75 46.4939H126.932C126.932 46.439 126.932 46.172 126.899 46.0846C126.545 46.3442 126.081 46.5339 125.459 46.5638C125.325 46.5638 125.185 46.5638 125.035 46.5563C123.935 46.4865 123.108 45.5256 123.039 44.3926C123.031 44.2678 123.031 44.1405 123.046 44.0157C123.133 42.9775 123.895 42.0966 124.903 41.9468C125.06 41.9144 125.272 41.8994 125.499 41.8994C125.821 41.8994 126.168 41.9693 126.483 42.0966L126.475 39.7207H127.748V46.4914L127.75 46.4939ZM125.422 45.4233C125.981 45.4233 126.398 45.0539 126.483 44.4724V44.0157C126.395 43.4268 125.978 43.0574 125.422 43.0474C124.801 43.0474 124.344 43.5191 124.344 44.2354C124.344 44.9516 124.776 45.4233 125.422 45.4233Z" fill="white"/>
<path d="M132.657 45.2985C132.398 45.895 131.791 46.5713 130.573 46.5713C129.355 46.5713 128.237 45.6754 128.237 44.2354C128.237 42.7954 129.33 41.8994 130.486 41.8994C131.948 41.8994 132.734 42.9301 132.734 44.5972H129.543C129.62 45.0939 130.054 45.4458 130.566 45.4932C130.968 45.5331 131.377 45.3684 131.604 45.0614L132.657 45.2985ZM131.484 43.7337C131.444 43.3244 131.067 42.8927 130.508 42.8927C129.982 42.8927 129.642 43.262 129.565 43.7337H131.484Z" fill="white"/>
<path d="M134.936 45.5029C135.36 45.5029 135.55 45.3382 135.55 45.1411C135.55 45.1186 135.535 45.1011 135.51 45.0862C135.32 44.5671 133.363 44.4323 133.356 43.3167C133.356 42.6729 134.032 41.9092 134.921 41.9092C135.59 41.9092 136.343 42.2087 136.753 42.7502L136.021 43.2768C135.714 43.0098 135.432 42.9224 135.078 42.9224C134.724 42.9224 134.599 43.0871 134.599 43.2693C134.599 43.7809 136.872 43.8358 136.865 45.1086C136.865 45.8798 136.009 46.5636 135.063 46.5636C134.299 46.5636 133.466 46.2092 133.129 45.5878L133.923 45.0462C134.197 45.3607 134.519 45.5029 134.936 45.5029Z" fill="white"/>
<path d="M137.499 41.9468H138.781V46.4914H137.499V41.9468ZM138.16 40.1475C138.332 40.1475 138.507 40.1949 138.647 40.2648C138.716 40.4145 138.756 40.5867 138.756 40.7764C138.756 40.966 138.716 41.1382 138.647 41.2955C138.489 41.3653 138.3 41.4053 138.112 41.4053C137.925 41.4053 137.766 41.3653 137.626 41.2955C137.563 41.0684 137.516 40.8088 137.516 40.5418C137.603 40.3296 137.87 40.1475 138.16 40.1475Z" fill="white"/>
<path d="M143.253 42.0191H144.102V46.3116C144.102 47.8615 143.001 48.4754 141.711 48.4829C140.955 48.4829 140.131 48.3182 139.715 47.6892L140.376 46.8632C140.683 47.1227 141.147 47.3349 141.721 47.3199C142.17 47.3124 142.704 47.0828 142.792 46.4863C142.824 46.3616 142.832 46.2268 142.839 46.0845C142.532 46.3591 142.14 46.4863 141.699 46.5013C141.611 46.5013 141.519 46.5013 141.432 46.4938C140.269 46.4314 139.388 45.3783 139.388 44.1654C139.388 42.9525 140.276 41.9168 141.432 41.8369H141.816C142.32 41.8519 142.839 41.9717 143.239 42.2861C143.253 42.1838 143.253 42.049 143.253 42.0191ZM141.784 45.3533C142.303 45.3533 142.712 45.0314 142.829 44.5123C142.844 44.4099 142.852 44.3076 142.852 44.1978V43.8983C142.852 43.8584 142.852 43.811 142.844 43.7636C142.764 43.3243 142.427 42.9849 141.784 42.9849C141.14 42.9849 140.705 43.4491 140.705 44.1654C140.705 44.8816 141.137 45.3533 141.784 45.3533Z" fill="white"/>
<path d="M144.73 46.4934V41.9414H145.831V42.2084C146.123 42.0187 146.485 41.9014 146.924 41.9014C148.269 41.8939 149.088 42.6876 149.078 43.9454L149.085 46.4934H147.82L147.813 44.1425C147.813 43.3789 147.531 43.017 146.924 43.017C146.398 43.017 146.091 43.3165 146.051 43.9054C146.036 44.0302 146.036 44.1725 146.036 44.3222V46.4934H144.73Z" fill="white"/>
<path d="M124.756 54.9365C125.18 54.9365 125.37 54.7718 125.37 54.5747C125.37 54.5522 125.355 54.5347 125.33 54.5198C125.14 54.0007 123.183 53.8659 123.176 52.7503C123.176 52.1064 123.852 51.3428 124.741 51.3428C125.409 51.3428 126.163 51.6423 126.572 52.1838L125.841 52.7104C125.534 52.4434 125.252 52.356 124.898 52.356C124.543 52.356 124.419 52.5207 124.419 52.7029C124.419 53.2145 126.692 53.2694 126.685 54.5422C126.685 55.3134 125.829 55.9972 124.883 55.9972C124.119 55.9972 123.286 55.6428 122.949 55.0214L123.742 54.4798C124.017 54.7943 124.339 54.9365 124.756 54.9365Z" fill="white"/>
<path d="M127.523 50.123H128.796V51.5156H129.67V52.5938H128.796V53.8441C128.796 53.9464 128.796 54.0338 128.804 54.1186C128.819 54.473 128.913 54.6602 129.096 54.7151C129.275 54.785 129.473 54.73 129.592 54.73L129.789 55.8456C129.632 55.8381 129.238 55.9629 128.799 55.9255C127.83 55.8157 127.571 55.0994 127.541 54.3532C127.533 54.196 127.533 54.0313 127.533 53.8665L127.526 52.5938H126.897V51.5156H127.526V50.123H127.523Z" fill="white"/>
<path d="M131.651 53.4672C131.644 53.6869 131.651 53.899 131.659 54.0961C131.706 54.6152 131.998 54.8898 132.54 54.8898C133.081 54.8898 133.373 54.6152 133.413 54.0961C133.421 53.899 133.428 53.6869 133.428 53.4672V51.4058H134.701L134.693 53.8516C134.693 54.0088 134.693 54.151 134.679 54.2908C134.599 55.3365 133.775 56.0053 132.54 56.0053C131.21 55.9978 130.376 55.2741 130.376 54.0462V51.4033H131.649V53.4647L131.651 53.4672Z" fill="white"/>
<path d="M139.93 55.9275H139.111C139.111 55.8726 139.111 55.6056 139.079 55.5182C138.724 55.7778 138.26 55.9675 137.639 55.9974C137.504 55.9974 137.364 55.9974 137.214 55.9899C136.114 55.92 135.288 54.9592 135.218 53.8262C135.21 53.7014 135.21 53.5741 135.225 53.4493C135.313 52.4111 136.074 51.5302 137.082 51.3804C137.239 51.348 137.451 51.333 137.679 51.333C138 51.333 138.347 51.4029 138.662 51.5302L138.654 49.1543H139.927V55.925L139.93 55.9275ZM137.601 54.8569C138.16 54.8569 138.577 54.4875 138.662 53.906V53.4493C138.574 52.8604 138.158 52.491 137.601 52.481C136.98 52.481 136.523 52.9527 136.523 53.669C136.523 54.3852 136.955 54.8569 137.601 54.8569Z" fill="white"/>
<path d="M140.603 51.3834H141.886V55.928H140.603V51.3834ZM141.264 49.584C141.437 49.584 141.611 49.6314 141.751 49.7013C141.821 49.851 141.861 50.0232 141.861 50.2129C141.861 50.4026 141.821 50.5748 141.751 50.732C141.594 50.8019 141.404 50.8418 141.217 50.8418C141.03 50.8418 140.87 50.8019 140.73 50.732C140.668 50.5049 140.62 50.2453 140.62 49.9783C140.708 49.7662 140.975 49.584 141.264 49.584Z" fill="white"/>
<path d="M144.866 51.3359C146.156 51.3359 147.242 52.4515 147.242 53.6719C147.242 54.8923 146.156 56.0078 144.866 56.0078C143.576 56.0078 142.482 54.8997 142.482 53.6719C142.482 52.444 143.583 51.3359 144.866 51.3359ZM144.858 54.8349C145.487 54.8349 145.951 54.3482 145.951 53.6719C145.951 52.9956 145.487 52.5089 144.858 52.5089C144.229 52.5089 143.773 52.9956 143.773 53.6719C143.773 54.3482 144.237 54.8423 144.858 54.8349Z" fill="white"/>
<path d="M42.1218 36.7253C39.8882 33.5958 41.2683 30.1667 38.7552 27.5887C37.6022 26.4058 36.1722 25.9565 35.2937 25.7619C35.5807 22.8869 36.2445 19.1059 37.7943 14.8957C39.4415 10.421 41.5378 6.94955 43.2748 4.50879C40.557 6.14844 36.7562 8.8762 33.1774 13.1638C30.2874 16.6252 28.4606 20.0019 27.3126 22.5874H19.8106C18.6601 19.9994 16.8333 16.6227 13.9458 13.1638C10.367 8.8762 6.56609 6.14844 3.84832 4.50879C5.5853 6.94955 7.68415 10.421 9.3288 14.8957C10.8786 19.1059 11.54 22.8869 11.8295 25.7619C10.951 25.9565 9.51847 26.4058 8.36796 27.5887C5.85733 30.1667 7.23493 33.5958 5.00131 36.7253C4.28007 37.7336 2.89747 39.1162 0 39.9946C0.621421 40.5811 2.36589 42.066 5.09615 42.4953C7.61427 42.8896 9.58834 42.1659 10.3845 41.8215C14.7319 45.5475 16.0546 48.8667 16.4439 51.2451C16.7584 53.1693 16.6186 55.4653 18.1759 57.9759C18.3856 58.3153 18.6077 58.6273 18.8348 58.9143C19.9703 60.3493 21.7298 61.1504 23.5616 61.1504C25.3934 61.1504 27.1503 60.3493 28.2884 58.9143C28.5155 58.6273 28.7376 58.3153 28.9472 57.9759C30.502 55.4653 30.3648 53.1668 30.6792 51.2451C31.066 48.8642 32.3912 45.545 36.7387 41.8215C37.5348 42.1659 39.5089 42.8896 42.027 42.4953C44.7573 42.0685 46.5017 40.5811 47.1231 39.9946C44.2282 39.1162 42.8431 37.7336 42.1218 36.7253Z" fill="white"/>
<path d="M23.5142 39.5633C20.7315 43.5489 18.3282 47.6792 16.4389 51.2131C16.0421 48.8372 14.7169 45.5254 10.3895 41.8219C9.59334 42.1663 7.61677 42.8925 5.09864 42.4932C2.37088 42.0664 0.623916 40.579 0 39.995C2.89497 39.1166 4.28007 37.734 5.00131 36.7257C7.23493 33.5962 5.85483 30.1646 8.36796 27.5891C9.09919 26.8379 9.94273 26.3812 10.6889 26.0967C15.4132 29.1639 19.8006 34.2375 23.5167 39.5608L23.5142 39.5633Z" fill="white"/>
<path d="M47.1232 39.9949C46.4992 40.5789 44.7573 42.0663 42.0245 42.4931C39.5064 42.8899 37.5348 42.1637 36.7337 41.8218C32.3912 45.5453 31.066 48.8695 30.6792 51.2479C30.6742 51.2828 30.6692 51.3203 30.6642 51.3552C28.76 47.7889 26.3268 43.6012 23.5142 39.5632C27.2327 34.225 31.6301 29.1413 36.3693 26.0791C37.1305 26.3586 37.999 26.8203 38.7552 27.5915C41.2683 30.167 39.8882 33.5985 42.1218 36.7281C42.8431 37.7339 44.2282 39.119 47.1232 39.9974V39.9949Z" fill="white"/>
<path d="M30.6642 51.3551C30.3697 53.2543 30.472 55.5153 28.9472 57.9786C28.7351 58.318 28.5154 58.6274 28.2908 58.9169C27.7218 59.6332 27.0006 60.1922 26.1845 60.5716C25.3759 60.9484 24.4774 61.1505 23.564 61.1505C21.7297 61.1505 19.9728 60.3519 18.8348 58.9169C18.6101 58.6274 18.388 58.318 18.1784 57.9786C16.6236 55.4654 16.7609 53.1694 16.4464 51.2452C16.4464 51.2353 16.4414 51.2203 16.4414 51.2103C18.3306 47.6764 20.734 43.5461 23.5166 39.5605C26.3292 43.5985 28.7625 47.7838 30.6667 51.3526L30.6642 51.3551Z" fill="white"/>
</svg>
